# xmcd CD database file
#
# Track frame offsets:
#	150
#	17205
#	35861
#	49509
#	60537
#	71297
#	86183
#	100530
#	121892
#	126047
#	142340
#	157646
#	174487
#	192421
#
# Disc length: 2747 seconds
#
# Revision: 0
# Processed by: cddbd v1.5.2PL0 Copyright (c) Steve Scherf et al.
# Submitted via: CDex 1.51
#
DISCID=bb0ab90e
DTITLE=Billy Joe Shaver - Storyteller  Live at the Bluebird 1992
DYEAR=2007
DGENRE=Country
TTITLE0=Georgia On A Fast Train
TTITLE1=Willy The Wandering Gypsy And Me
TTITLE2=Honky Tonk Heroes (Like Me)
TTITLE3=Black Rose
TTITLE4=Talk: My Ex-Wife Brenda
TTITLE5=Amtrak (Ain't Comin' Back)
TTITLE6=Talk: Surgery/NYC
TTITLE7=The Cowboy Who Started The Fight
TTITLE8=Talk: I Forget
TTITLE9=Old Chunk Of Coal
TTITLE10=Moonshine And Indian Blood
TTITLE11=Highway Of Life
TTITLE12=Live Forever
TTITLE13=Ypu Asked Me To
EXTD=YEAR: 2007
EXTT0=
EXTT1=
EXTT2=
EXTT3=
EXTT4=
EXTT5=
EXTT6=
EXTT7=
EXTT8=
EXTT9=
EXTT10=
EXTT11=
EXTT12=
EXTT13=
PLAYORDER=
